Patient4_TMGait_0pt7_02_left_03_EMG.mot
version=1
nRows=20
nColumns=33
inDegrees=no
endheader
time	1LAddLong	2LGlutMax	3LGlutMed	4LIliopsoas	5LSemiMemb	6LBicFemLong	7LRecFem	8LVastMed	9LVastLat	10LGasMed	11LTibAnt	12lTibPost	13LPeroneusLong	14LSol	15LExtDigLong	16LFlexDigLong	17RAddLong	18RGlutMax	19RGlutMed	20RIliopsoas	21RSemiMemb	22RBicFemLong	23RRecFem	24RVastMed	25RVastLat	26RGasMed	27RTibAnt	28RTibPost	29RPeroneusLong	30RSol	31RExtDigLong	32RFlexDigLong
4.225	0.025177	0.44632	-0.009766	-0.016022	-0.027313	0.028229	-0.11475	-0.002899	0.072784	-0.033112	-0.06073	-0.001221	0.05188	0.032654	0.072021	-0.006714	0.003815	-0.16663	0.28519	-0.020142	0.01297	0.056915	0.19104	-0.03006	0.010376	-0.077972	-0.22553	-0.033264	0.11536	0.43915	-0.000916	-0.001678
4.226	0.02594	0.5246	0.008087	0.006104	0.05722	0.023651	-0.12528	0.002747	0.080414	-0.013428	0.018005	0.002289	0.041656	-0.016937	0.059814	-0.008545	-0.012512	-0.11032	0.16174	-0.11444	-0.10178	0.10468	0.10178	-0.021515	0.10223	-0.015106	-0.1619	-0.08255	0.12589	0.35294	-0.001068	-0.018921
4.227	0.019531	0.52567	-0.02243	-0.012207	0.049438	0.0354	-0.13596	-0.002136	0.096893	-0.017853	0.06897	0.003815	0.056152	-0.04364	0.050354	-0.009003	-0.018768	-0.11627	0.25055	-0.16525	-0.14297	0.067749	-0.13611	-0.051117	0.15091	-0.044556	-0.057373	0.027008	-0.007477	0.21316	-0.003662	-0.0177
4.228	0.009918	0.55069	-0.053253	-0.00946	0.026398	0.04776	-0.11612	-0.000763	0.084229	-0.014038	-0.00946	-0.000458	0.077362	-0.044708	-0.001221	-0.005341	-0.023193	-0.14053	-0.005188	-0.19867	0.06958	0.04837	-0.054169	-0.034637	0.2095	-0.088043	0.002289	0.16602	0.24353	-0.011749	-0.00412	-0.014038
4.229	0.01236	0.56274	-0.11246	-0.006866	0.00473	0.063477	-0.13275	0.005798	0.095062	-0.020294	-0.05127	0.005493	0.081329	-0.07019	-0.06073	-0.017395	-0.022888	-0.098572	0.12817	-0.15259	0.1358	-0.006409	-0.077667	-0.13367	0.18997	-0.003357	0.057983	0.055389	0.25711	-0.16113	-0.003662	-0.011597
4.23	0.002289	0.53909	-0.10254	-0.006104	-0.029907	0.046692	-0.13626	0.001068	0.085754	-0.030518	-0.030518	-0.001984	0.035248	-0.048218	-0.067291	-0.006561	-0.027466	-0.063019	0.50247	-0.076599	0.088501	0.027008	-0.22415	-0.10239	0.20401	0.034027	0.089111	-0.004425	0.23682	0.059814	-0.010223	-0.000916
4.231	0.004883	0.53146	-0.15488	-0.021362	-0.066071	0.023346	-0.14023	0.004425	0.08255	-0.032043	-0.006714	-0.000916	0.040131	-0.005035	-0.043335	-0.011444	-0.011902	-0.029755	0.42526	0.085449	-0.002289	-0.00885	-0.25345	-0.014496	0.068512	0.001678	0.16861	-0.02121	0.19073	0.13931	-0.002747	-0.00412
4.232	0.016174	0.52643	-0.1619	-0.009003	-0.004578	0.001373	-0.16342	0.006561	0.093536	-0.026245	0.037231	-0.000458	0.009308	-0.002747	0.029449	-0.017242	0.001526	0.068512	0.46783	0.2095	-0.030518	-0.028687	-0.16861	0.016022	-0.52612	0.010529	0.32608	-0.034943	0.18555	0.083923	-0.004425	-0.014343
4.233	0.022583	0.513	-0.049896	-0.019226	0.036469	-0.021667	-0.16342	0.002899	0.098114	-0.042877	0.042572	0.006104	0.020447	-0.025177	0.062256	-0.013275	0.02182	0.079498	0.25421	0.12207	-0.023041	-0.041199	0.005798	0.025787	-0.32806	-0.018311	0.39261	-0.027924	0.41138	0.43594	-0.00061	-0.014954
4.234	0.020142	0.51422	0.082092	-0.013275	0.039978	-0.014038	-0.1413	0.008392	0.092163	-0.041656	0.027161	-0.000458	0.061798	-0.040894	0.05722	-0.007935	0.037231	0.069275	0.40771	0.10986	-0.03952	-0.05661	0.10086	0.009918	-0.11017	0.052795	0.24216	0.031738	0.29205	0.56427	-0.003357	-0.008087
4.235	0.024567	0.47043	0.075836	0.019836	0.02182	0.010529	-0.15869	0.004883	0.078735	-0.024261	0.007935	-0.003967	0.06012	-0.059204	0.034943	-0.014954	0.021057	0.092773	0.5928	0.12955	-0.027313	-0.055847	0.072021	0.059509	-0.023804	0.060577	0.11948	0.002747	-0.12268	0.11536	-0.000916	-0.008698
4.236	0.014496	0.4541	0.05249	-0.001221	0.015717	0.023041	-0.1442	0.001068	0.085449	-0.032349	0.016174	-0.001831	0.049896	-0.049286	-0.000763	-0.012817	0.011902	0.13687	0.26077	0.059052	-0.020447	-0.022736	-0.060883	0.006256	0.03479	0.028381	-0.44708	-0.016479	-0.57999	-0.23621	-0.004272	-0.009308
4.237	0.020294	0.46143	0.10284	-0.010529	0.014038	0.011749	-0.15701	0.005493	0.08316	-0.020447	0.021973	-0.000458	0.04837	-0.033264	-0.021515	-0.006409	0.007935	0.18036	0.032501	0.003204	-0.015259	0.024719	-0.067749	-0.025177	0.010223	0.01297	-0.15015	-0.019379	-0.082245	-0.32272	0.008392	-0.007324
4.238	0.004425	0.42801	0.070496	-0.02243	0.015411	0.032654	-0.15854	0.006104	0.086975	-0.020905	0.013885	0.001068	0.050354	-0.032349	-0.031891	-0.003357	0.014191	-0.005188	-0.31525	-0.13596	-0.032959	0.008698	0.13412	0.000916	-0.027771	0.021667	0.36606	-0.01297	0.75653	-0.43472	-0.002136	-0.011444
4.239	0.003357	0.39307	-0.000153	-0.007324	0.02655	0.052948	-0.15991	0.00473	0.087433	-0.026703	0.015564	0.00061	0.043488	-0.023499	-0.007477	-0.016022	0.009918	-0.20554	-0.70282	-0.14786	-0.02655	0.014038	0.30914	-0.002441	-0.12848	0.019073	0.15579	-0.013123	-0.68436	-0.39551	-0.001068	-0.007477
4.24	0.004883	0.37262	-0.030212	0.006866	0.009155	0.078888	-0.15991	0.004578	0.085449	-0.037689	0.014038	-0.005035	0.048218	-0.051117	-0.010834	-0.001373	0.010834	-0.13763	-0.25925	-0.12009	-0.025482	0.028381	0.19073	-0.13275	-0.28351	0.009155	-0.37552	-0.018463	-0.26535	-0.18799	-0.003052	-0.019379
4.241	-0.003662	0.30792	-0.032196	-0.003662	-0.013428	0.07309	-0.15823	0.020905	0.088654	-0.036774	0.019226	-0.006561	0.048218	-0.017395	-0.007935	0.005188	0.010376	-0.091705	-0.10696	0.010223	-0.041656	-0.003967	0.094757	-0.22049	-0.19821	0.007935	-1.1368	-0.013275	1.0866	-0.16708	-0.001678	-0.018005
4.242	0.007782	0.28748	-0.015106	-0.003357	-0.052643	0.027771	-0.15884	-0.045319	0.089874	-0.026855	0.037537	-0.002747	0.032196	-0.024414	-0.001373	-0.005188	-0.009766	-0.12619	-0.073547	0.20569	-0.047607	-0.033417	0.033264	-0.15167	-0.00885	0.015869	-1.1087	-0.01236	0.61539	-0.24445	-0.001526	-0.012512
4.243	0.003204	0.26871	0.006866	-0.007324	-0.001068	-0.021362	-0.1561	0.009613	0.093994	-0.024872	0.060577	-0.001526	0.032043	-0.041656	0.048065	0.000153	-0.003967	-0.13016	0.49957	0.17792	-0.037994	-0.027466	-0.24887	-0.17319	0.092163	0.007935	-0.3122	-0.014801	0.39337	-0.28564	-0.001068	-0.006561
4.244	0.01297	0.21835	-0.016937	-0.00946	0.039978	-0.011902	-0.16281	0.014648	0.079803	-0.024567	0.061035	0.002899	0.032654	-0.038605	-0.00824	0.002899	0.007172	-0.19302	0.10239	0.1178	-0.032349	-0.01709	-0.32944	-0.20355	0.11383	-0.000153	0.47348	-0.014496	0.51514	-0.11902	-0.002136	-0.007324
